<svg xmlns="http://www.w3.org/2000/svg" viewBox="0 0 48 48" fill="none">
  <rect width="48" height="48" rx="12" fill="#090B14"/>
  <defs>
    <linearGradient id="favGold" x1="10" y1="7" x2="40" y2="43" gradientUnits="userSpaceOnUse">
      <stop stop-color="#FDE68A"/>
      <stop offset=".52" stop-color="#FBBF24"/>
      <stop offset="1" stop-color="#F59E0B"/>
    </linearGradient>
  </defs>
  <path d="M13 33v-6a11 11 0 0 1 22 0v6" stroke="#CBD5E1" stroke-width="2.2" stroke-linecap="round" fill="none" opacity=".85"/>
  <rect x="8.4" y="30.5" width="5.4" height="11" rx="2.7" fill="#E2E8F0"/>
  <rect x="34.2" y="30.5" width="5.4" height="11" rx="2.7" fill="#E2E8F0"/>
  <path d="M31.2 17.6c0-3.4-3.8-5.6-8.4-5.6-4.8 0-8.4 2.4-8.4 6 0 7.1 17.4 4.4 17.4 11.6 0 3.8-3.9 6.2-9 6.2-4.7 0-8.2-2-8.9-4.9" stroke="url(#favGold)" stroke-width="4.4" stroke-linecap="round" fill="none"/>
  <path d="M33 15.5h4.5M37.5 15.5v-4" stroke="url(#favGold)" stroke-width="1.7" stroke-linecap="round"/>
  <circle cx="37.5" cy="10" r="2" fill="url(#favGold)"/>
  <circle cx="40.5" cy="15.5" r="1.7" fill="url(#favGold)"/>
</svg>
