<svg xmlns="http://www.w3.org/2000/svg" width="1200" height="630" viewBox="0 0 1200 630" fill="none">
  <defs>
    <linearGradient id="ogGold" x1="10" y1="7" x2="40" y2="43" gradientUnits="userSpaceOnUse">
      <stop stop-color="#FDE68A"/>
      <stop offset=".52" stop-color="#FBBF24"/>
      <stop offset="1" stop-color="#F59E0B"/>
    </linearGradient>
    <radialGradient id="ogGlow" cx="0" cy="0" r="1" gradientUnits="userSpaceOnUse" gradientTransform="translate(220 120) scale(560)">
      <stop stop-color="#FBBF24" stop-opacity="0.22"/>
      <stop offset="1" stop-color="#FBBF24" stop-opacity="0"/>
    </radialGradient>
  </defs>
  <rect width="1200" height="630" fill="#090B14"/>
  <rect width="1200" height="630" fill="url(#ogGlow)"/>
  <g transform="translate(150,205) scale(3.5)">
    <path d="M13 33v-6a11 11 0 0 1 22 0v6" stroke="#CBD5E1" stroke-width="2.2" stroke-linecap="round" fill="none" opacity=".85"/>
    <rect x="8.4" y="30.5" width="5.4" height="11" rx="2.7" fill="#E2E8F0"/>
    <rect x="34.2" y="30.5" width="5.4" height="11" rx="2.7" fill="#E2E8F0"/>
    <path d="M31.2 17.6c0-3.4-3.8-5.6-8.4-5.6-4.8 0-8.4 2.4-8.4 6 0 7.1 17.4 4.4 17.4 11.6 0 3.8-3.9 6.2-9 6.2-4.7 0-8.2-2-8.9-4.9" stroke="url(#ogGold)" stroke-width="4.4" stroke-linecap="round" fill="none"/>
    <path d="M33 15.5h4.5M37.5 15.5v-4" stroke="url(#ogGold)" stroke-width="1.7" stroke-linecap="round"/>
    <circle cx="37.5" cy="10" r="2" fill="url(#ogGold)"/>
    <circle cx="40.5" cy="15.5" r="1.7" fill="url(#ogGold)"/>
  </g>
  <text x="300" y="300" font-family="Arial, sans-serif" font-size="72" font-weight="800" fill="#FFFFFF">Som<tspan fill="#FBBF24">Reception</tspan> <tspan fill="#94A3B8" font-weight="700">AI</tspan></text>
  <text x="302" y="355" font-family="Arial, sans-serif" font-size="30" font-weight="600" letter-spacing="1" fill="#94A3B8">AI RECEPTIONIST FOR MODERN BUSINESSES</text>
</svg>
